<mxfile host="app.diagrams.net" agent="Mozilla/5.0 (Windows NT 10.0; Win64; x64) AppleWebKit/537.36 (KHTML, like Gecko) Chrome/130.0.0.0 Safari/537.36 Edg/130.0.0.0" version="24.8.4">
  <diagram name="PÃ¡gina-1" id="gUPWB9RoWkuR4gu6qNsk">
    <mxGraphModel dx="1426" dy="747" grid="1" gridSize="10" guides="1" tooltips="1" connect="1" arrows="1" fold="1" page="1" pageScale="1" pageWidth="1169" pageHeight="827" math="0" shadow="0">
      <root>
        <mxCell id="0" />
        <mxCell id="1" parent="0" />
        <mxCell id="PFfe4M5gnG03zccf7alS-1" value="" style="edgeStyle=orthogonalEdgeStyle;rounded=0;orthogonalLoop=1;jettySize=auto;html=1;fontStyle=1;fillColor=#d5e8d4;strokeColor=#82b366;strokeWidth=2;endArrow=block;endFill=1;" edge="1" parent="1" source="PFfe4M5gnG03zccf7alS-2" target="PFfe4M5gnG03zccf7alS-57">
          <mxGeometry relative="1" as="geometry" />
        </mxCell>
        <mxCell id="PFfe4M5gnG03zccf7alS-2" value="Pix request" style="rounded=1;whiteSpace=wrap;html=1;fontSize=12;glass=0;strokeWidth=1;shadow=0;fillColor=#eeeeee;strokeColor=#36393d;fontStyle=1" vertex="1" parent="1">
          <mxGeometry x="130.06" y="27.5" width="120" height="40" as="geometry" />
        </mxCell>
        <mxCell id="PFfe4M5gnG03zccf7alS-3" value="" style="edgeStyle=orthogonalEdgeStyle;rounded=0;orthogonalLoop=1;jettySize=auto;html=1;fontStyle=1;fillColor=#e51400;strokeColor=#B20000;strokeWidth=2;endArrow=cross;endFill=0;" edge="1" parent="1" source="PFfe4M5gnG03zccf7alS-5" target="PFfe4M5gnG03zccf7alS-6">
          <mxGeometry relative="1" as="geometry" />
        </mxCell>
        <mxCell id="PFfe4M5gnG03zccf7alS-4" value="" style="edgeStyle=orthogonalEdgeStyle;rounded=0;orthogonalLoop=1;jettySize=auto;html=1;fontStyle=1;fillColor=#d5e8d4;strokeColor=#82b366;strokeWidth=2;endArrow=block;endFill=1;" edge="1" parent="1" source="PFfe4M5gnG03zccf7alS-5" target="PFfe4M5gnG03zccf7alS-26">
          <mxGeometry relative="1" as="geometry" />
        </mxCell>
        <mxCell id="PFfe4M5gnG03zccf7alS-5" value="Is valid?" style="rhombus;whiteSpace=wrap;html=1;shadow=0;fontFamily=Helvetica;fontSize=12;align=center;strokeWidth=1;spacing=6;spacingTop=-4;fillColor=#ffcc99;strokeColor=#36393d;fontStyle=1" vertex="1" parent="1">
          <mxGeometry x="140.06" y="350" width="100" height="80" as="geometry" />
        </mxCell>
        <mxCell id="PFfe4M5gnG03zccf7alS-6" value="Throw error" style="rounded=1;whiteSpace=wrap;html=1;fontSize=12;glass=0;strokeWidth=1;shadow=0;fillColor=#ffcccc;strokeColor=#36393d;fontStyle=1" vertex="1" parent="1">
          <mxGeometry x="275.06" y="370" width="120" height="40" as="geometry" />
        </mxCell>
        <mxCell id="PFfe4M5gnG03zccf7alS-7" value="" style="edgeStyle=orthogonalEdgeStyle;rounded=0;orthogonalLoop=1;jettySize=auto;html=1;fontStyle=1;fillColor=#f0a30a;strokeColor=#BD7000;strokeWidth=2;endArrow=block;endFill=1;" edge="1" parent="1" source="PFfe4M5gnG03zccf7alS-9" target="PFfe4M5gnG03zccf7alS-18">
          <mxGeometry relative="1" as="geometry" />
        </mxCell>
        <mxCell id="PFfe4M5gnG03zccf7alS-8" style="edgeStyle=orthogonalEdgeStyle;rounded=0;orthogonalLoop=1;jettySize=auto;html=1;endArrow=block;endFill=1;fillColor=#d5e8d4;strokeColor=#82b366;strokeWidth=2;" edge="1" parent="1" source="PFfe4M5gnG03zccf7alS-9">
          <mxGeometry relative="1" as="geometry">
            <mxPoint x="290" y="560" as="targetPoint" />
          </mxGeometry>
        </mxCell>
        <mxCell id="PFfe4M5gnG03zccf7alS-9" value="Is valid?" style="rhombus;whiteSpace=wrap;html=1;shadow=0;fontFamily=Helvetica;fontSize=12;align=center;strokeWidth=1;spacing=6;spacingTop=-4;fillColor=#ffcc99;strokeColor=#36393d;fontStyle=1" vertex="1" parent="1">
          <mxGeometry x="140.06" y="520" width="100" height="80" as="geometry" />
        </mxCell>
        <mxCell id="PFfe4M5gnG03zccf7alS-10" style="edgeStyle=orthogonalEdgeStyle;rounded=0;orthogonalLoop=1;jettySize=auto;html=1;fontStyle=1;fillColor=#f0a30a;strokeColor=#BD7000;strokeWidth=2;endArrow=block;endFill=1;" edge="1" parent="1" source="PFfe4M5gnG03zccf7alS-11" target="PFfe4M5gnG03zccf7alS-59">
          <mxGeometry relative="1" as="geometry" />
        </mxCell>
        <mxCell id="PFfe4M5gnG03zccf7alS-11" value="Throw a message /put in quarentine" style="rounded=1;whiteSpace=wrap;html=1;fontSize=12;glass=0;strokeWidth=1;shadow=0;fillColor=#ffcccc;strokeColor=#36393d;fontStyle=1" vertex="1" parent="1">
          <mxGeometry x="130.06" y="756" width="120" height="60" as="geometry" />
        </mxCell>
        <mxCell id="PFfe4M5gnG03zccf7alS-12" value="" style="edgeStyle=orthogonalEdgeStyle;rounded=0;orthogonalLoop=1;jettySize=auto;html=1;fontStyle=1;fillColor=#f0a30a;strokeColor=#BD7000;strokeWidth=2;endArrow=block;endFill=1;" edge="1" parent="1" target="PFfe4M5gnG03zccf7alS-29">
          <mxGeometry relative="1" as="geometry">
            <mxPoint x="559.06" y="560" as="sourcePoint" />
          </mxGeometry>
        </mxCell>
        <mxCell id="PFfe4M5gnG03zccf7alS-13" value="Ledger" style="rounded=1;whiteSpace=wrap;html=1;fontSize=12;glass=0;strokeWidth=1;shadow=0;fillColor=#eeeeee;strokeColor=#36393d;fontStyle=1" vertex="1" parent="1">
          <mxGeometry x="440.06" y="543" width="120" height="40" as="geometry" />
        </mxCell>
        <mxCell id="PFfe4M5gnG03zccf7alS-14" value="" style="edgeStyle=orthogonalEdgeStyle;rounded=0;orthogonalLoop=1;jettySize=auto;html=1;fontStyle=1;strokeWidth=2;endArrow=block;endFill=1;" edge="1" parent="1" source="PFfe4M5gnG03zccf7alS-15" target="PFfe4M5gnG03zccf7alS-2">
          <mxGeometry relative="1" as="geometry" />
        </mxCell>
        <mxCell id="PFfe4M5gnG03zccf7alS-15" value="Client" style="shape=umlActor;verticalLabelPosition=bottom;verticalAlign=top;html=1;outlineConnect=0;fillColor=#eeeeee;strokeColor=#36393d;fontStyle=1" vertex="1" parent="1">
          <mxGeometry x="20.119999999999997" y="20" width="30" height="55" as="geometry" />
        </mxCell>
        <mxCell id="PFfe4M5gnG03zccf7alS-16" value="" style="edgeStyle=orthogonalEdgeStyle;rounded=0;orthogonalLoop=1;jettySize=auto;html=1;fontStyle=1;fillColor=#f0a30a;strokeColor=#BD7000;strokeWidth=2;endArrow=block;endFill=1;" edge="1" parent="1" source="PFfe4M5gnG03zccf7alS-18" target="PFfe4M5gnG03zccf7alS-11">
          <mxGeometry relative="1" as="geometry" />
        </mxCell>
        <mxCell id="PFfe4M5gnG03zccf7alS-17" value="" style="edgeStyle=orthogonalEdgeStyle;rounded=0;orthogonalLoop=1;jettySize=auto;html=1;fontStyle=1;strokeWidth=2;fillColor=#e51400;strokeColor=#B20000;endArrow=cross;endFill=0;" edge="1" parent="1" source="PFfe4M5gnG03zccf7alS-18" target="PFfe4M5gnG03zccf7alS-24">
          <mxGeometry relative="1" as="geometry" />
        </mxCell>
        <mxCell id="PFfe4M5gnG03zccf7alS-18" value="Anti-fraud error?" style="rhombus;whiteSpace=wrap;html=1;shadow=0;fontFamily=Helvetica;fontSize=12;align=center;strokeWidth=1;spacing=6;spacingTop=-4;fillColor=#ffcc99;strokeColor=#36393d;fontStyle=1" vertex="1" parent="1">
          <mxGeometry x="140.06" y="641" width="100" height="80" as="geometry" />
        </mxCell>
        <mxCell id="PFfe4M5gnG03zccf7alS-19" value="&lt;span style=&quot;color: rgb(0, 0, 0); font-family: Helvetica; font-size: 11px; font-style: normal; font-variant-ligatures: normal; font-variant-caps: normal; letter-spacing: normal; orphans: 2; text-align: center; text-indent: 0px; text-transform: none; widows: 2; word-spacing: 0px; -webkit-text-stroke-width: 0px; white-space: nowrap; background-color: rgb(251, 251, 251); text-decoration-thickness: initial; text-decoration-style: initial; text-decoration-color: initial; float: none; display: inline !important;&quot;&gt;Yes&lt;/span&gt;" style="text;whiteSpace=wrap;html=1;fontStyle=1" vertex="1" parent="1">
          <mxGeometry x="159.99999999999994" y="430" width="50" height="40" as="geometry" />
        </mxCell>
        <mxCell id="PFfe4M5gnG03zccf7alS-20" value="&lt;span style=&quot;color: rgb(0, 0, 0); font-family: Helvetica; font-size: 11px; font-style: normal; font-variant-ligatures: normal; font-variant-caps: normal; letter-spacing: normal; orphans: 2; text-align: center; text-indent: 0px; text-transform: none; widows: 2; word-spacing: 0px; -webkit-text-stroke-width: 0px; white-space: nowrap; background-color: rgb(251, 251, 251); text-decoration-thickness: initial; text-decoration-style: initial; text-decoration-color: initial; float: none; display: inline !important;&quot;&gt;Yes&lt;/span&gt;" style="text;whiteSpace=wrap;html=1;fontStyle=1" vertex="1" parent="1">
          <mxGeometry x="245.06" y="530" width="50" height="40" as="geometry" />
        </mxCell>
        <mxCell id="PFfe4M5gnG03zccf7alS-21" value="&lt;span style=&quot;color: rgb(0, 0, 0); font-family: Helvetica; font-size: 11px; font-style: normal; font-variant-ligatures: normal; font-variant-caps: normal; letter-spacing: normal; orphans: 2; text-align: center; text-indent: 0px; text-transform: none; widows: 2; word-spacing: 0px; -webkit-text-stroke-width: 0px; white-space: nowrap; background-color: rgb(251, 251, 251); text-decoration-thickness: initial; text-decoration-style: initial; text-decoration-color: initial; float: none; display: inline !important;&quot;&gt;Yes&lt;/span&gt;" style="text;whiteSpace=wrap;html=1;fontStyle=1" vertex="1" parent="1">
          <mxGeometry x="200.06" y="721" width="50" height="40" as="geometry" />
        </mxCell>
        <mxCell id="PFfe4M5gnG03zccf7alS-22" value="&lt;span style=&quot;color: rgb(0, 0, 0); font-family: Helvetica; font-size: 11px; font-style: normal; font-variant-ligatures: normal; font-variant-caps: normal; letter-spacing: normal; orphans: 2; text-align: center; text-indent: 0px; text-transform: none; widows: 2; word-spacing: 0px; -webkit-text-stroke-width: 0px; white-space: nowrap; background-color: rgb(251, 251, 251); text-decoration-thickness: initial; text-decoration-style: initial; text-decoration-color: initial; float: none; display: inline !important;&quot;&gt;No&lt;/span&gt;" style="text;whiteSpace=wrap;html=1;fontStyle=1" vertex="1" parent="1">
          <mxGeometry x="200.06" y="606" width="50" height="40" as="geometry" />
        </mxCell>
        <mxCell id="PFfe4M5gnG03zccf7alS-23" value="&lt;span style=&quot;color: rgb(0, 0, 0); font-family: Helvetica; font-size: 11px; font-style: normal; font-variant-ligatures: normal; font-variant-caps: normal; letter-spacing: normal; orphans: 2; text-align: center; text-indent: 0px; text-transform: none; widows: 2; word-spacing: 0px; -webkit-text-stroke-width: 0px; white-space: nowrap; background-color: rgb(251, 251, 251); text-decoration-thickness: initial; text-decoration-style: initial; text-decoration-color: initial; float: none; display: inline !important;&quot;&gt;No&lt;/span&gt;" style="text;whiteSpace=wrap;html=1;fontStyle=1" vertex="1" parent="1">
          <mxGeometry x="240.06" y="360" width="50" height="40" as="geometry" />
        </mxCell>
        <mxCell id="PFfe4M5gnG03zccf7alS-24" value="Throw error" style="rounded=1;whiteSpace=wrap;html=1;fontSize=12;glass=0;strokeWidth=1;shadow=0;fillColor=#ffcccc;strokeColor=#36393d;fontStyle=1" vertex="1" parent="1">
          <mxGeometry x="20.06" y="658" width="90.06" height="46" as="geometry" />
        </mxCell>
        <mxCell id="PFfe4M5gnG03zccf7alS-25" value="" style="edgeStyle=orthogonalEdgeStyle;rounded=0;orthogonalLoop=1;jettySize=auto;html=1;fontStyle=1;fillColor=#f0a30a;strokeColor=#BD7000;strokeWidth=2;endArrow=block;endFill=1;" edge="1" parent="1" source="PFfe4M5gnG03zccf7alS-26" target="PFfe4M5gnG03zccf7alS-9">
          <mxGeometry relative="1" as="geometry" />
        </mxCell>
        <mxCell id="PFfe4M5gnG03zccf7alS-26" value="&lt;div&gt;Validation by the Authorizer**&lt;/div&gt;" style="rounded=1;whiteSpace=wrap;html=1;fontSize=12;glass=0;strokeWidth=1;shadow=0;fillColor=#eeeeee;strokeColor=#36393d;fontStyle=1" vertex="1" parent="1">
          <mxGeometry x="130.06" y="460" width="120" height="40" as="geometry" />
        </mxCell>
        <mxCell id="PFfe4M5gnG03zccf7alS-27" value="" style="edgeStyle=orthogonalEdgeStyle;rounded=0;orthogonalLoop=1;jettySize=auto;html=1;fontStyle=1;fillColor=#d5e8d4;strokeColor=#82b366;strokeWidth=2;endArrow=block;endFill=1;" edge="1" parent="1" source="PFfe4M5gnG03zccf7alS-29" target="PFfe4M5gnG03zccf7alS-31">
          <mxGeometry relative="1" as="geometry" />
        </mxCell>
        <mxCell id="PFfe4M5gnG03zccf7alS-28" value="" style="edgeStyle=orthogonalEdgeStyle;rounded=0;orthogonalLoop=1;jettySize=auto;html=1;fontStyle=1;fillColor=#e51400;strokeColor=#B20000;strokeWidth=2;endArrow=cross;endFill=0;" edge="1" parent="1" source="PFfe4M5gnG03zccf7alS-29" target="PFfe4M5gnG03zccf7alS-32">
          <mxGeometry relative="1" as="geometry" />
        </mxCell>
        <mxCell id="PFfe4M5gnG03zccf7alS-29" value="The client exists?" style="rhombus;whiteSpace=wrap;html=1;shadow=0;fontFamily=Helvetica;fontSize=12;align=center;strokeWidth=1;spacing=6;spacingTop=-4;fillColor=#ffcc99;strokeColor=#36393d;fontStyle=1" vertex="1" parent="1">
          <mxGeometry x="599.06" y="520" width="100" height="80" as="geometry" />
        </mxCell>
        <mxCell id="PFfe4M5gnG03zccf7alS-30" value="" style="edgeStyle=orthogonalEdgeStyle;rounded=0;orthogonalLoop=1;jettySize=auto;html=1;fontStyle=1;fillColor=#f0a30a;strokeColor=#BD7000;strokeWidth=2;endArrow=block;endFill=1;" edge="1" parent="1" source="PFfe4M5gnG03zccf7alS-31" target="PFfe4M5gnG03zccf7alS-37">
          <mxGeometry relative="1" as="geometry" />
        </mxCell>
        <mxCell id="PFfe4M5gnG03zccf7alS-31" value="Transaction API" style="rounded=1;whiteSpace=wrap;html=1;fontSize=12;glass=0;strokeWidth=1;shadow=0;fillColor=#eeeeee;strokeColor=#36393d;fontStyle=1" vertex="1" parent="1">
          <mxGeometry x="739.06" y="540" width="120" height="40" as="geometry" />
        </mxCell>
        <mxCell id="PFfe4M5gnG03zccf7alS-32" value="Throw error" style="rounded=1;whiteSpace=wrap;html=1;fontSize=12;glass=0;strokeWidth=1;shadow=0;fillColor=#ffcccc;strokeColor=#36393d;fontStyle=1" vertex="1" parent="1">
          <mxGeometry x="589.06" y="626" width="120" height="40" as="geometry" />
        </mxCell>
        <mxCell id="PFfe4M5gnG03zccf7alS-33" value="&lt;span style=&quot;color: rgb(0, 0, 0); font-family: Helvetica; font-size: 11px; font-style: normal; font-variant-ligatures: normal; font-variant-caps: normal; letter-spacing: normal; orphans: 2; text-align: center; text-indent: 0px; text-transform: none; widows: 2; word-spacing: 0px; -webkit-text-stroke-width: 0px; white-space: nowrap; background-color: rgb(251, 251, 251); text-decoration-thickness: initial; text-decoration-style: initial; text-decoration-color: initial; float: none; display: inline !important;&quot;&gt;Yes&lt;/span&gt;" style="text;whiteSpace=wrap;html=1;fontStyle=1" vertex="1" parent="1">
          <mxGeometry x="699.06" y="530" width="50" height="40" as="geometry" />
        </mxCell>
        <mxCell id="PFfe4M5gnG03zccf7alS-34" value="&lt;span style=&quot;color: rgb(0, 0, 0); font-family: Helvetica; font-size: 11px; font-style: normal; font-variant-ligatures: normal; font-variant-caps: normal; letter-spacing: normal; orphans: 2; text-align: center; text-indent: 0px; text-transform: none; widows: 2; word-spacing: 0px; -webkit-text-stroke-width: 0px; white-space: nowrap; background-color: rgb(251, 251, 251); text-decoration-thickness: initial; text-decoration-style: initial; text-decoration-color: initial; float: none; display: inline !important;&quot;&gt;No&lt;/span&gt;" style="text;whiteSpace=wrap;html=1;fontStyle=1" vertex="1" parent="1">
          <mxGeometry x="620" y="596" width="50" height="40" as="geometry" />
        </mxCell>
        <mxCell id="PFfe4M5gnG03zccf7alS-35" value="" style="edgeStyle=orthogonalEdgeStyle;rounded=0;orthogonalLoop=1;jettySize=auto;html=1;fontStyle=1;fillColor=#e51400;strokeColor=#B20000;strokeWidth=2;endArrow=cross;endFill=0;" edge="1" parent="1" source="PFfe4M5gnG03zccf7alS-37" target="PFfe4M5gnG03zccf7alS-38">
          <mxGeometry relative="1" as="geometry" />
        </mxCell>
        <mxCell id="PFfe4M5gnG03zccf7alS-36" value="" style="edgeStyle=orthogonalEdgeStyle;rounded=0;orthogonalLoop=1;jettySize=auto;html=1;fontStyle=1;fillColor=#d5e8d4;strokeColor=#82b366;strokeWidth=2;endArrow=block;endFill=1;" edge="1" parent="1" source="PFfe4M5gnG03zccf7alS-37" target="PFfe4M5gnG03zccf7alS-52">
          <mxGeometry relative="1" as="geometry" />
        </mxCell>
        <mxCell id="PFfe4M5gnG03zccf7alS-37" value="Succeeded" style="rhombus;whiteSpace=wrap;html=1;shadow=0;fontFamily=Helvetica;fontSize=12;align=center;strokeWidth=1;spacing=6;spacingTop=-4;fillColor=#ffcc99;strokeColor=#36393d;fontStyle=1" vertex="1" parent="1">
          <mxGeometry x="749.06" y="621" width="100" height="80" as="geometry" />
        </mxCell>
        <mxCell id="PFfe4M5gnG03zccf7alS-38" value="Throw error" style="rounded=1;whiteSpace=wrap;html=1;fontSize=12;glass=0;strokeWidth=1;shadow=0;fillColor=#ffcccc;strokeColor=#36393d;fontStyle=1" vertex="1" parent="1">
          <mxGeometry x="739.06" y="736" width="120" height="40" as="geometry" />
        </mxCell>
        <mxCell id="PFfe4M5gnG03zccf7alS-39" value="&lt;span style=&quot;color: rgb(0, 0, 0); font-family: Helvetica; font-size: 11px; font-style: normal; font-variant-ligatures: normal; font-variant-caps: normal; letter-spacing: normal; orphans: 2; text-align: center; text-indent: 0px; text-transform: none; widows: 2; word-spacing: 0px; -webkit-text-stroke-width: 0px; white-space: nowrap; background-color: rgb(251, 251, 251); text-decoration-thickness: initial; text-decoration-style: initial; text-decoration-color: initial; float: none; display: inline !important;&quot;&gt;No&lt;/span&gt;" style="text;whiteSpace=wrap;html=1;fontStyle=1" vertex="1" parent="1">
          <mxGeometry x="774.06" y="701" width="50" height="40" as="geometry" />
        </mxCell>
        <mxCell id="PFfe4M5gnG03zccf7alS-40" value="&lt;span style=&quot;color: rgb(0, 0, 0); font-family: Helvetica; font-size: 11px; font-style: normal; font-variant-ligatures: normal; font-variant-caps: normal; letter-spacing: normal; orphans: 2; text-align: center; text-indent: 0px; text-transform: none; widows: 2; word-spacing: 0px; -webkit-text-stroke-width: 0px; white-space: nowrap; background-color: rgb(251, 251, 251); text-decoration-thickness: initial; text-decoration-style: initial; text-decoration-color: initial; float: none; display: inline !important;&quot;&gt;Yes&lt;/span&gt;" style="text;whiteSpace=wrap;html=1;fontStyle=1" vertex="1" parent="1">
          <mxGeometry x="849.06" y="636" width="50" height="40" as="geometry" />
        </mxCell>
        <mxCell id="PFfe4M5gnG03zccf7alS-41" value="" style="edgeStyle=orthogonalEdgeStyle;rounded=0;orthogonalLoop=1;jettySize=auto;html=1;fontStyle=1;fillColor=#e51400;strokeColor=#B20000;strokeWidth=2;endArrow=cross;endFill=0;" edge="1" parent="1" source="PFfe4M5gnG03zccf7alS-43" target="PFfe4M5gnG03zccf7alS-45">
          <mxGeometry relative="1" as="geometry" />
        </mxCell>
        <mxCell id="PFfe4M5gnG03zccf7alS-42" style="edgeStyle=orthogonalEdgeStyle;rounded=0;orthogonalLoop=1;jettySize=auto;html=1;entryX=0.5;entryY=1;entryDx=0;entryDy=0;fontStyle=1;fillColor=#d5e8d4;strokeColor=#82b366;strokeWidth=2;endArrow=block;endFill=1;" edge="1" parent="1" source="PFfe4M5gnG03zccf7alS-43" target="PFfe4M5gnG03zccf7alS-46">
          <mxGeometry relative="1" as="geometry" />
        </mxCell>
        <mxCell id="PFfe4M5gnG03zccf7alS-43" value="Succeeded" style="rhombus;whiteSpace=wrap;html=1;shadow=0;fontFamily=Helvetica;fontSize=12;align=center;strokeWidth=1;spacing=6;spacingTop=-4;fillColor=#ffcc99;strokeColor=#36393d;fontStyle=1" vertex="1" parent="1">
          <mxGeometry x="1039.06" y="621" width="100" height="80" as="geometry" />
        </mxCell>
        <mxCell id="PFfe4M5gnG03zccf7alS-44" value="&lt;span style=&quot;color: rgb(0, 0, 0); font-family: Helvetica; font-size: 11px; font-style: normal; font-variant-ligatures: normal; font-variant-caps: normal; letter-spacing: normal; orphans: 2; text-align: center; text-indent: 0px; text-transform: none; widows: 2; word-spacing: 0px; -webkit-text-stroke-width: 0px; white-space: nowrap; background-color: rgb(251, 251, 251); text-decoration-thickness: initial; text-decoration-style: initial; text-decoration-color: initial; float: none; display: inline !important;&quot;&gt;Yes&lt;/span&gt;" style="text;whiteSpace=wrap;html=1;fontStyle=1" vertex="1" parent="1">
          <mxGeometry x="1050" y="580" width="50" height="40" as="geometry" />
        </mxCell>
        <mxCell id="PFfe4M5gnG03zccf7alS-45" value="Throw error" style="rounded=1;whiteSpace=wrap;html=1;fontSize=12;glass=0;strokeWidth=1;shadow=0;fillColor=#ffcccc;strokeColor=#36393d;fontStyle=1" vertex="1" parent="1">
          <mxGeometry x="1029.06" y="730" width="120" height="40" as="geometry" />
        </mxCell>
        <mxCell id="PFfe4M5gnG03zccf7alS-46" value="Send back the information and finalize the transaction" style="rounded=1;whiteSpace=wrap;html=1;fontSize=12;glass=0;strokeWidth=1;shadow=0;fillColor=#eeeeee;strokeColor=#36393d;fontStyle=1" vertex="1" parent="1">
          <mxGeometry x="1020.78" y="292.5" width="136.56" height="57.5" as="geometry" />
        </mxCell>
        <mxCell id="PFfe4M5gnG03zccf7alS-47" style="edgeStyle=orthogonalEdgeStyle;rounded=0;orthogonalLoop=1;jettySize=auto;html=1;exitX=0.5;exitY=1;exitDx=0;exitDy=0;fontStyle=1" edge="1" parent="1">
          <mxGeometry relative="1" as="geometry">
            <mxPoint x="969.03" y="219" as="sourcePoint" />
            <mxPoint x="969.03" y="219" as="targetPoint" />
          </mxGeometry>
        </mxCell>
        <mxCell id="PFfe4M5gnG03zccf7alS-48" value="&lt;span style=&quot;color: rgb(0, 0, 0); font-family: Helvetica; font-size: 11px; font-style: normal; font-variant-ligatures: normal; font-variant-caps: normal; letter-spacing: normal; orphans: 2; text-align: center; text-indent: 0px; text-transform: none; widows: 2; word-spacing: 0px; -webkit-text-stroke-width: 0px; white-space: nowrap; background-color: rgb(251, 251, 251); text-decoration-thickness: initial; text-decoration-style: initial; text-decoration-color: initial; float: none; display: inline !important;&quot;&gt;No&lt;/span&gt;" style="text;whiteSpace=wrap;html=1;fontStyle=1" vertex="1" parent="1">
          <mxGeometry x="1064.06" y="701" width="50" height="40" as="geometry" />
        </mxCell>
        <mxCell id="PFfe4M5gnG03zccf7alS-49" style="edgeStyle=orthogonalEdgeStyle;rounded=0;orthogonalLoop=1;jettySize=auto;html=1;entryX=0;entryY=0.5;entryDx=0;entryDy=0;fillColor=#d5e8d4;strokeColor=#82b366;strokeWidth=2;endArrow=block;endFill=1;" edge="1" parent="1" source="PFfe4M5gnG03zccf7alS-50" target="PFfe4M5gnG03zccf7alS-13">
          <mxGeometry relative="1" as="geometry" />
        </mxCell>
        <mxCell id="PFfe4M5gnG03zccf7alS-50" value="Queue (SQS)" style="strokeWidth=1;html=1;shape=mxgraph.flowchart.sequential_data;whiteSpace=wrap;fillColor=#eeeeee;strokeColor=#36393d;fontStyle=1" vertex="1" parent="1">
          <mxGeometry x="290.06" y="520" width="90" height="86" as="geometry" />
        </mxCell>
        <mxCell id="PFfe4M5gnG03zccf7alS-51" value="" style="edgeStyle=orthogonalEdgeStyle;rounded=0;orthogonalLoop=1;jettySize=auto;html=1;fontStyle=1;fillColor=#f0a30a;strokeColor=#BD7000;strokeWidth=2;endArrow=block;endFill=1;" edge="1" parent="1" source="PFfe4M5gnG03zccf7alS-52" target="PFfe4M5gnG03zccf7alS-43">
          <mxGeometry relative="1" as="geometry" />
        </mxCell>
        <mxCell id="PFfe4M5gnG03zccf7alS-52" value="Partner" style="shape=umlActor;verticalLabelPosition=bottom;verticalAlign=top;html=1;outlineConnect=0;fillColor=#eeeeee;strokeColor=#36393d;fontStyle=1" vertex="1" parent="1">
          <mxGeometry x="930.06" y="631" width="30" height="60" as="geometry" />
        </mxCell>
        <mxCell id="PFfe4M5gnG03zccf7alS-53" value="" style="edgeStyle=orthogonalEdgeStyle;rounded=0;orthogonalLoop=1;jettySize=auto;html=1;fontStyle=1;strokeWidth=2;fillColor=#d5e8d4;strokeColor=#82b366;endArrow=block;endFill=1;" edge="1" parent="1" source="PFfe4M5gnG03zccf7alS-57" target="PFfe4M5gnG03zccf7alS-62">
          <mxGeometry relative="1" as="geometry" />
        </mxCell>
        <mxCell id="PFfe4M5gnG03zccf7alS-54" style="edgeStyle=orthogonalEdgeStyle;rounded=0;orthogonalLoop=1;jettySize=auto;html=1;entryX=0.5;entryY=0;entryDx=0;entryDy=0;fillColor=#e1d5e7;strokeColor=#9673a6;dashed=1;fontStyle=1;strokeWidth=2;endArrow=block;endFill=1;" edge="1" parent="1" source="PFfe4M5gnG03zccf7alS-57" target="PFfe4M5gnG03zccf7alS-13">
          <mxGeometry relative="1" as="geometry">
            <Array as="points">
              <mxPoint x="500" y="160" />
            </Array>
          </mxGeometry>
        </mxCell>
        <mxCell id="PFfe4M5gnG03zccf7alS-55" style="edgeStyle=orthogonalEdgeStyle;rounded=0;orthogonalLoop=1;jettySize=auto;html=1;entryX=0;entryY=0.5;entryDx=0;entryDy=0;fillColor=#e1d5e7;strokeColor=#9673a6;dashed=1;fontStyle=1;strokeWidth=2;endArrow=block;endFill=1;" edge="1" parent="1" source="PFfe4M5gnG03zccf7alS-57" target="PFfe4M5gnG03zccf7alS-26">
          <mxGeometry relative="1" as="geometry">
            <Array as="points">
              <mxPoint x="110" y="140" />
              <mxPoint x="110" y="480" />
            </Array>
          </mxGeometry>
        </mxCell>
        <mxCell id="PFfe4M5gnG03zccf7alS-56" style="edgeStyle=orthogonalEdgeStyle;rounded=0;orthogonalLoop=1;jettySize=auto;html=1;fillColor=#e1d5e7;strokeColor=#9673a6;dashed=1;fontStyle=1;strokeWidth=2;endArrow=block;endFill=1;exitX=1;exitY=0.5;exitDx=0;exitDy=0;exitPerimeter=0;" edge="1" parent="1" source="PFfe4M5gnG03zccf7alS-57">
          <mxGeometry relative="1" as="geometry">
            <mxPoint x="940" y="610" as="targetPoint" />
            <Array as="points">
              <mxPoint x="940" y="140" />
            </Array>
            <mxPoint x="233.99999999999994" y="154.99857142857135" as="sourcePoint" />
          </mxGeometry>
        </mxCell>
        <mxCell id="PFfe4M5gnG03zccf7alS-57" value="MS - Pix" style="html=1;shape=mxgraph.basic.isocube;isoAngle=15;fillColor=#cce5ff;strokeColor=#36393d;fontStyle=1" vertex="1" parent="1">
          <mxGeometry x="140.06" y="90" width="100" height="100" as="geometry" />
        </mxCell>
        <mxCell id="PFfe4M5gnG03zccf7alS-58" style="edgeStyle=orthogonalEdgeStyle;rounded=0;orthogonalLoop=1;jettySize=auto;html=1;fontStyle=1;fillColor=#d5e8d4;strokeColor=#82b366;strokeWidth=2;endArrow=block;endFill=1;" edge="1" parent="1" source="PFfe4M5gnG03zccf7alS-59">
          <mxGeometry relative="1" as="geometry">
            <mxPoint x="335" y="610" as="targetPoint" />
            <Array as="points">
              <mxPoint x="335" y="617" />
            </Array>
          </mxGeometry>
        </mxCell>
        <mxCell id="PFfe4M5gnG03zccf7alS-59" value="Quarentine OK" style="rounded=1;whiteSpace=wrap;html=1;fontSize=12;glass=0;strokeWidth=1;shadow=0;fillColor=#eeeeee;strokeColor=#36393d;fontStyle=1" vertex="1" parent="1">
          <mxGeometry x="275.06" y="766" width="120" height="40" as="geometry" />
        </mxCell>
        <mxCell id="PFfe4M5gnG03zccf7alS-60" value="&lt;span style=&quot;color: rgb(0, 0, 0); font-family: Helvetica; font-size: 11px; font-style: normal; font-variant-ligatures: normal; font-variant-caps: normal; letter-spacing: normal; orphans: 2; text-align: center; text-indent: 0px; text-transform: none; widows: 2; word-spacing: 0px; -webkit-text-stroke-width: 0px; white-space: nowrap; background-color: rgb(251, 251, 251); text-decoration-thickness: initial; text-decoration-style: initial; text-decoration-color: initial; float: none; display: inline !important;&quot;&gt;No&lt;/span&gt;" style="text;whiteSpace=wrap;html=1;fontStyle=1" vertex="1" parent="1">
          <mxGeometry x="120.12" y="651" width="50" height="40" as="geometry" />
        </mxCell>
        <mxCell id="PFfe4M5gnG03zccf7alS-61" value="" style="edgeStyle=orthogonalEdgeStyle;rounded=0;orthogonalLoop=1;jettySize=auto;html=1;fontStyle=1;strokeWidth=2;fillColor=#f0a30a;strokeColor=#BD7000;endArrow=block;endFill=1;" edge="1" parent="1" source="PFfe4M5gnG03zccf7alS-62" target="PFfe4M5gnG03zccf7alS-5">
          <mxGeometry relative="1" as="geometry" />
        </mxCell>
        <mxCell id="PFfe4M5gnG03zccf7alS-62" value="&lt;span style=&quot;text-wrap-mode: wrap;&quot;&gt;MS - PKV&lt;/span&gt;" style="html=1;shape=mxgraph.basic.isocube;isoAngle=15;fillColor=#cce5ff;strokeColor=#36393d;fontStyle=1" vertex="1" parent="1">
          <mxGeometry x="140.06" y="220" width="100" height="100" as="geometry" />
        </mxCell>
        <mxCell id="PFfe4M5gnG03zccf7alS-63" value="MS Pix will send back the success transactions info to Authorizer" style="text;html=1;align=center;verticalAlign=middle;whiteSpace=wrap;rounded=0;fontStyle=0" vertex="1" parent="1">
          <mxGeometry x="10.120000000000001" y="250" width="100" height="81.25" as="geometry" />
        </mxCell>
        <mxCell id="PFfe4M5gnG03zccf7alS-64" value="MS Pix will send back the success transactions info to Ledger" style="text;html=1;align=center;verticalAlign=middle;whiteSpace=wrap;rounded=0;fontStyle=0" vertex="1" parent="1">
          <mxGeometry x="295.06" y="160" width="184.94" height="50" as="geometry" />
        </mxCell>
        <mxCell id="PFfe4M5gnG03zccf7alS-65" style="edgeStyle=orthogonalEdgeStyle;rounded=0;orthogonalLoop=1;jettySize=auto;html=1;entryX=0.999;entryY=0.336;entryDx=0;entryDy=0;entryPerimeter=0;fontStyle=1;fillColor=#d5e8d4;strokeColor=#82b366;strokeWidth=2;endArrow=block;endFill=1;" edge="1" parent="1" source="PFfe4M5gnG03zccf7alS-46" target="PFfe4M5gnG03zccf7alS-57">
          <mxGeometry relative="1" as="geometry">
            <Array as="points">
              <mxPoint x="1089" y="124" />
            </Array>
          </mxGeometry>
        </mxCell>
        <mxCell id="PFfe4M5gnG03zccf7alS-66" value="MS Pix will send back the success transactions info to Partner/BCB" style="text;html=1;align=center;verticalAlign=middle;whiteSpace=wrap;rounded=0;fontStyle=0" vertex="1" parent="1">
          <mxGeometry x="745.12" y="140" width="184.94" height="50" as="geometry" />
        </mxCell>
        <mxCell id="PFfe4M5gnG03zccf7alS-67" value="" style="endArrow=block;html=1;rounded=0;strokeWidth=2;endFill=1;fontSize=13;align=right;fontStyle=0" edge="1" parent="1">
          <mxGeometry width="50" height="50" relative="1" as="geometry">
            <mxPoint x="745" y="264.71" as="sourcePoint" />
            <mxPoint x="801" y="265" as="targetPoint" />
          </mxGeometry>
        </mxCell>
        <mxCell id="PFfe4M5gnG03zccf7alS-68" value="" style="endArrow=classic;html=1;rounded=0;fillColor=#e1d5e7;strokeColor=#9673a6;dashed=1;strokeWidth=2;fontSize=13;align=right;fontStyle=0" edge="1" parent="1">
          <mxGeometry width="50" height="50" relative="1" as="geometry">
            <mxPoint x="745" y="295.21" as="sourcePoint" />
            <mxPoint x="801" y="295" as="targetPoint" />
          </mxGeometry>
        </mxCell>
        <mxCell id="PFfe4M5gnG03zccf7alS-69" value="Flow" style="text;html=1;align=right;verticalAlign=middle;whiteSpace=wrap;rounded=0;fontSize=13;fontStyle=0" vertex="1" parent="1">
          <mxGeometry x="680" y="250" width="60" height="30" as="geometry" />
        </mxCell>
        <mxCell id="PFfe4M5gnG03zccf7alS-70" value="Return" style="text;html=1;align=right;verticalAlign=middle;whiteSpace=wrap;rounded=0;fontSize=13;fontStyle=0" vertex="1" parent="1">
          <mxGeometry x="680" y="280" width="60" height="30" as="geometry" />
        </mxCell>
        <mxCell id="PFfe4M5gnG03zccf7alS-71" value="" style="edgeStyle=orthogonalEdgeStyle;rounded=0;orthogonalLoop=1;jettySize=auto;html=1;endArrow=cross;endFill=0;fillColor=#e51400;strokeColor=#B20000;strokeWidth=2;fontSize=13;align=right;fontStyle=0" edge="1" parent="1">
          <mxGeometry relative="1" as="geometry">
            <mxPoint x="745" y="325" as="sourcePoint" />
            <mxPoint x="801" y="325" as="targetPoint" />
          </mxGeometry>
        </mxCell>
        <mxCell id="PFfe4M5gnG03zccf7alS-72" value="" style="edgeStyle=orthogonalEdgeStyle;rounded=0;orthogonalLoop=1;jettySize=auto;html=1;endArrow=block;endFill=1;fillColor=#d5e8d4;strokeColor=#82b366;strokeWidth=2;fontSize=13;align=right;fontStyle=0" edge="1" parent="1">
          <mxGeometry relative="1" as="geometry">
            <mxPoint x="745" y="355" as="sourcePoint" />
            <mxPoint x="801" y="355" as="targetPoint" />
          </mxGeometry>
        </mxCell>
        <mxCell id="PFfe4M5gnG03zccf7alS-73" value="" style="edgeStyle=orthogonalEdgeStyle;rounded=0;orthogonalLoop=1;jettySize=auto;html=1;endArrow=block;endFill=1;fillColor=#f0a30a;strokeColor=#BD7000;strokeWidth=2;fontSize=13;align=right;fontStyle=0" edge="1" parent="1">
          <mxGeometry relative="1" as="geometry">
            <mxPoint x="745" y="385" as="sourcePoint" />
            <mxPoint x="801" y="385" as="targetPoint" />
          </mxGeometry>
        </mxCell>
        <mxCell id="PFfe4M5gnG03zccf7alS-74" value="Status: Bloqued" style="text;html=1;align=right;verticalAlign=middle;whiteSpace=wrap;rounded=0;fontSize=13;fontStyle=0" vertex="1" parent="1">
          <mxGeometry x="636" y="310" width="104" height="30" as="geometry" />
        </mxCell>
        <mxCell id="PFfe4M5gnG03zccf7alS-75" value="Status: Success" style="text;html=1;align=right;verticalAlign=middle;whiteSpace=wrap;rounded=0;fontSize=13;fontStyle=0" vertex="1" parent="1">
          <mxGeometry x="621" y="340" width="119" height="30" as="geometry" />
        </mxCell>
        <mxCell id="PFfe4M5gnG03zccf7alS-76" value="Status: Pending" style="text;html=1;align=right;verticalAlign=middle;whiteSpace=wrap;rounded=0;fontSize=13;fontStyle=0" vertex="1" parent="1">
          <mxGeometry x="620" y="370" width="119" height="30" as="geometry" />
        </mxCell>
      </root>
    </mxGraphModel>
  </diagram>
</mxfile>
